<svg id="svg-equity" width="24px" height="24px" viewBox="0 0 244.846 244.846" >
<g>
	<path d="M235.913,121.497c-7.896-6.333-17.826-9.82-27.965-9.82c-2.989,0-5.94,0.303-8.833,0.883   c-15.884-30.475-47.781-51.333-84.459-51.333c-49.956,0-91.043,38.688-94.88,87.675H7.5c-4.143,0-7.5,3.358-7.5,7.5   s3.357,7.5,7.5,7.5h19.481h16.078c-0.966,2.35-2.877,4.267-5.342,5.181c-3.884,1.44-5.865,5.756-4.425,9.64   c1.122,3.024,3.986,4.894,7.033,4.894c0.866,0,1.747-0.151,2.606-0.47c8.354-3.098,14.281-10.587,15.557-19.245h101.251   c1.276,8.658,7.203,16.147,15.557,19.245c0.859,0.319,1.74,0.47,2.606,0.47c3.047,0,5.912-1.87,7.033-4.894   c1.44-3.884-0.541-8.2-4.425-9.64c-2.465-0.914-4.376-2.831-5.342-5.181h27.16c0,0,0,0,0,0c0.008,0,0.014,0,0.019,0h18.601   c10.265,0,19.099-6.265,22.507-15.96C246.854,138.278,243.894,127.897,235.913,121.497z M114.656,76.228   c34.914,0,64.674,22.437,75.651,53.646H39.006C49.982,98.665,79.742,76.228,114.656,76.228z M34.829,148.903   c0.286-3.065,0.765-6.073,1.387-9.029h156.88c0.622,2.956,1.102,5.964,1.387,9.029H34.829z M229.307,142.969   c-0.489,1.392-2.538,5.934-8.355,5.934h-11.417c-0.599-7.651-2.11-15.049-4.419-22.089c0.938-0.088,1.882-0.136,2.833-0.136   c6.836,0,13.261,2.255,18.58,6.521C231.025,136.805,229.792,141.589,229.307,142.969z" fill="#000000"/>
</g>
</svg>
