<svg id="svg-eu" width="24px" height="24px" viewBox="0 0 279.971 279.971">
<g>
	<g>
		<path d="M208.077,21.606c-2.2-1.1-4.4-1.6-6.5-1.6c-39.101-43.9-118.2-7.3-151.8,30.8c-48.2,54.6-67,151.6-1.7,201.4    C196.977,365.706,371.677,99.606,208.077,21.606z M79.077,236.006c-59.5-33.899-46.4-106.2-14.2-154.1    c15.3-22.8,38.5-41.6,64.7-50c21.3-6.8,38.2-0.7,55.6,7.4c0.8,3.5,3.101,6.7,7.5,8.8    C312.978,107.006,191.377,300.206,79.077,236.006z" fill="#000000"/>
		<path d="M177.877,165.706c-15.3,7.9-29.9,35.5-49.2,25.9c-9.6-4.8-15.5-14.8-19.5-25.4c8.8,0.4,17.5,0.9,26.2,0.9    c5.4,0,8.5-3.8,8.9-8c4.3-3,3.899-9.7-1.7-11.601c-11.2-3.899-26.7-1.699-38.5-1.899c-0.2,0-0.4,0-0.6,0    c-0.1-0.4-0.2-0.8-0.2-1.101c-1.2-6.4-1.5-13.9-1.3-21.3c5.3,0.3,10.6,0.6,15.9,0.8c14.2,0.5,31.7,2.8,43.6-6.3    c3.801-2.9,5.601-10.2,0-12.6c-16.5-7.1-37.899-2.8-55.899-3c1.6-4.3,3.7-8.4,6.5-11.8c15.3-18.6,42-6.8,61-2.3    c6.3,1.5,11-6.1,6.3-10.9c-21.9-22.3-59.2-31-83.7-8.3c-9,8.3-14.3,19.3-17.3,31.1c-9.3-0.3-18.2,0.9-23.4,6.6    c-2.9,3.2-3.8,7.7-1.5,11.6c4.6,7.6,11.1,5.8,17.4,3.2c1.5-0.1,3,0,4.5,0.1c-0.3,8.6,0.1,17.2,1,25.3c-1.2,0.3-1.9,1.3-2.3,2.3    c-0.7,0-1.4,0-2.1,0.101c-5.2,0.2-11.2-1.2-15.4,2.5c-0.1,0-0.1,0.1-0.1,0.1c-0.2,0.2-0.4,0.2-0.6,0.4c0.1,0,0.2,0,0.3,0    c-0.4,0.399-0.9,0.7-1.1,1.399l-0.2,0.801c-0.6,3.1,0.4,6.1,3.2,7.8c5.7,3.5,14.2,4,22.3,4c5.7,20.399,17.2,40.6,36,49.899    c27.6,13.601,70.2-8.1,77.3-37.8C196.177,168.406,186.377,161.307,177.877,165.706z" fill="#000000"/>
	</g>
</g>
</svg>
